<svg width="33" height="20" viewBox="0 0 33 20" fill="none" xmlns="http://www.w3.org/2000/svg">
<path d="M31.6544 1.94012C31.8808 1.21168 31.6544 0.67749 30.5842 0.67749H27.0386C26.1365 0.67749 25.7242 1.13962 25.4978 1.64718C25.4978 1.64718 23.6952 5.90661 21.1407 8.66842C20.3161 9.47205 19.9394 9.72583 19.49 9.72583C19.2653 9.72583 18.9387 9.47205 18.9387 8.74361V1.94012C18.9387 1.06599 18.6784 0.67749 17.9266 0.67749H12.3552C11.7926 0.67749 11.4531 1.08166 11.4531 1.46703C11.4531 2.29416 12.7303 2.48528 12.8613 4.81629V9.87309C12.8613 10.9806 12.656 11.1827 12.2033 11.1827C11.002 11.1827 8.07892 6.90763 6.34415 2.01375C6.00624 1.06286 5.66511 0.679057 4.75973 0.679057H1.2158C0.202095 0.679057 0 1.14119 0 1.64875C0 2.56047 1.20125 7.07211 5.59559 13.0391C8.52515 17.1136 12.6495 19.3225 16.4068 19.3225C18.659 19.3225 18.9371 18.8321 18.9371 17.9862V14.9064C18.9371 13.9257 19.1521 13.7283 19.8651 13.7283C20.3889 13.7283 21.291 13.9853 23.3944 15.9481C25.7969 18.276 26.1947 19.3209 27.5447 19.3209H31.0886C32.1007 19.3209 32.6067 18.8306 32.3157 17.8624C31.9972 16.899 30.8493 15.497 29.3263 13.838C28.4985 12.8918 27.2617 11.8736 26.885 11.3644C26.3596 10.7081 26.5115 10.4182 26.885 9.83549C26.8866 9.83706 31.205 3.94373 31.6544 1.94012Z" fill="black"/>
</svg>
